<?xml version="1.0" encoding="UTF-8" standalone="no"?>
<!DOCTYPE svg PUBLIC "-//W3C//DTD SVG 1.1//EN"
 "http://www.w3.org/Graphics/SVG/1.1/DTD/svg11.dtd">
<!-- Generated by graphviz version 2.40.1 (20161225.0304)
 -->
<!-- Title: dependencies Pages: 1 -->
<svg width="504pt" height="211pt"
 viewBox="0.00 0.00 504.00 211.00" xmlns="http://www.w3.org/2000/svg" xmlns:xlink="http://www.w3.org/1999/xlink">
<g id="graph0" class="graph" transform="scale(1 1) rotate(0) translate(4 207)">
<title>dependencies</title>
<polygon fill="#ffffff" stroke="transparent" points="-4,4 -4,-207 500,-207 500,4 -4,4"/>
<text text-anchor="start" x="227.0091" y="-42.4" font-family="sans-serif" font-weight="bold" font-size="14.00" fill="#000000">Legend</text>
<polygon fill="#ffffb3" stroke="transparent" points="14,-10 14,-30 34,-30 34,-10 14,-10"/>
<text text-anchor="start" x="37.629" y="-15.4" font-family="sans-serif" font-size="14.00" fill="#000000"> &#160;Declarations</text>
<polygon fill="#8dd3c7" stroke="transparent" points="127,-10 127,-30 147,-30 147,-10 127,-10"/>
<text text-anchor="start" x="150.7251" y="-15.4" font-family="sans-serif" font-size="14.00" fill="#000000"> &#160;Module</text>
<polygon fill="#80b1d3" stroke="transparent" points="213,-10 213,-30 233,-30 233,-10 213,-10"/>
<text text-anchor="start" x="236.7812" y="-15.4" font-family="sans-serif" font-size="14.00" fill="#000000"> &#160;Bootstrap</text>
<polygon fill="#fdb462" stroke="transparent" points="310,-10 310,-30 330,-30 330,-10 310,-10"/>
<text text-anchor="start" x="333.6732" y="-15.4" font-family="sans-serif" font-size="14.00" fill="#000000"> &#160;Providers</text>
<polygon fill="#fb8072" stroke="transparent" points="406,-10 406,-30 426,-30 426,-10 406,-10"/>
<text text-anchor="start" x="429.7258" y="-15.4" font-family="sans-serif" font-size="14.00" fill="#000000"> &#160;Exports</text>
<g id="clust1" class="cluster">
<title>cluster_PagesModule</title>
<polygon fill="none" stroke="#000000" stroke-dasharray="1,5" points="121,-70 121,-195 375,-195 375,-70 121,-70"/>
</g>
<g id="clust3" class="cluster">
<title>cluster_PagesModule_imports</title>
<polygon fill="none" stroke="#000000" points="129,-78 129,-130 367,-130 367,-78 129,-78"/>
</g>
<!-- PlatformModule -->
<g id="node1" class="node">
<title>PlatformModule</title>
<polygon fill="#8dd3c7" stroke="#000000" points="359.041,-122 356.041,-126 335.041,-126 332.041,-122 250.959,-122 250.959,-86 359.041,-86 359.041,-122"/>
<text text-anchor="middle" x="305" y="-99.8" font-family="Times,serif" font-size="14.00" fill="#000000">PlatformModule</text>
</g>
<!-- PagesModule -->
<g id="node3" class="node">
<title>PagesModule</title>
<polygon fill="#8dd3c7" stroke="#000000" points="291.2064,-187 288.2064,-191 267.2064,-191 264.2064,-187 198.7936,-187 198.7936,-151 291.2064,-151 291.2064,-187"/>
<text text-anchor="middle" x="245" y="-164.8" font-family="Times,serif" font-size="14.00" fill="#000000">PagesModule</text>
</g>
<!-- PlatformModule&#45;&gt;PagesModule -->
<g id="edge1" class="edge">
<title>PlatformModule&#45;&gt;PagesModule</title>
<path fill="none" stroke="#000000" d="M270.9166,-122.1061C270.9166,-122.1061 270.9166,-140.991 270.9166,-140.991"/>
<polygon fill="#000000" stroke="#000000" points="267.4166,-140.9909 270.9166,-150.991 274.4166,-140.991 267.4166,-140.9909"/>
</g>
<!-- PublicModule -->
<g id="node2" class="node">
<title>PublicModule</title>
<polygon fill="#8dd3c7" stroke="#000000" points="232.8288,-122 229.8288,-126 208.8288,-126 205.8288,-122 137.1712,-122 137.1712,-86 232.8288,-86 232.8288,-122"/>
<text text-anchor="middle" x="185" y="-99.8" font-family="Times,serif" font-size="14.00" fill="#000000">PublicModule</text>
</g>
<!-- PublicModule&#45;&gt;PagesModule -->
<g id="edge2" class="edge">
<title>PublicModule&#45;&gt;PagesModule</title>
<path fill="none" stroke="#000000" d="M215.7805,-122.1061C215.7805,-122.1061 215.7805,-140.991 215.7805,-140.991"/>
<polygon fill="#000000" stroke="#000000" points="212.2806,-140.9909 215.7805,-150.991 219.2806,-140.991 212.2806,-140.9909"/>
</g>
</g>
</svg>
